# xmcd
#
# Track frame offsets:
#	150
#	10918
#	25446
#	39622
#	54152
#	67762
#	82598
#	95754
#	110720
#	123773
#	137620
#	150018
#	165244
#	179830
#	193635
#	204869
#	219455
#	232581
#
# Disc length: 3294
#
# Revision: 2
# Processed by: cddbd v1.5.1PL0 Copyright (c) Steve Scherf et al.
# Submitted via: CDex 1.50
# Normalized: r1:DSETVAR1,TDELIM( - )
#
DISCID=d50cdc12
DTITLE=Various Artist - Lounge Wizards - Jazz after hours 1
DYEAR=1900
DGENRE=Jazz
TTITLE0=Don Byas - They say it's wonderful
TTITLE1=Charlie Parker - My old flame
TTITLE2=Thelonious Monk - Ruby my dear
TTITLE3=Coleman Hawkins - Angel face
TTITLE4=Dizzy Gillespie - I can't get started
TTITLE5=Wardell Gray - The man I love
TTITLE6=Duke Ellington - Chelsea bridge
TTITLE7=Benny Goodman - Stardust
TTITLE8=Charly Ventura - Big deal
TTITLE9=Ben Webster - I surrender dear
TTITLE10=Errol Garner - Laura
TTITLE11=Charlie Parker - Embraceable you
TTITLE12=Charlie Parker - Bird of paradise
TTITLE13=Coleman Hawkins - How strange
TTITLE14=Lennie Tristano - Atonement
TTITLE15=Ben Webster - Body and soul
TTITLE16=Oscar Peterson - Time on my hands
TTITLE17=Lionel Hampton - Memories of you
EXTD=
EXTT0=
EXTT1=
EXTT2=
EXTT3=
EXTT4=
EXTT5=
EXTT6=
EXTT7=
EXTT8=
EXTT9=
EXTT10=
EXTT11=
EXTT12=
EXTT13=
EXTT14=
EXTT15=
EXTT16=
EXTT17=
PLAYORDER=
